<svg xmlns="http://www.w3.org/2000/svg" viewBox="0 0 680 80" width="680" height="80">

  <g transform="translate(60,40)">
    <path d="M0,-13 L3,-5 L12,-4 L6,3 L8,12 L0,7 L-8,12 L-6,3 L-12,-4 L-3,-5 Z" fill="none" stroke="#FF1493" stroke-width="2" stroke-linejoin="round" stroke-linecap="round"/>
    <circle cx="0" cy="0" r="2" fill="#FF1493" opacity="0.5"/>
  </g>
  <circle cx="85" cy="33" r="2" fill="#FF1493" opacity="0.4"/>
  <circle cx="85" cy="47" r="1.5" fill="#FFD700" opacity="0.4"/>

  <g transform="translate(112,40)">
    <circle cx="0" cy="0" r="12" fill="none" stroke="#FFD700" stroke-width="2"/>
    <circle cx="0" cy="0" r="4" fill="none" stroke="#FFD700" stroke-width="1.2" opacity="0.5"/>
    <circle cx="0" cy="0" r="1.8" fill="#FFD700" opacity="0.6"/>
  </g>
  <circle cx="137" cy="34" r="1.5" fill="#FFD700" opacity="0.4"/>
  <circle cx="137" cy="46" r="2" fill="#FF1493" opacity="0.35"/>

  <g transform="translate(164,40)">
    <path d="M0,-11 L2.8,-4 L10,-3.4 L5,2.5 L6.8,10 L0,6 L-6.8,10 L-5,2.5 L-10,-3.4 L-2.8,-4 Z" fill="none" stroke="#FF1493" stroke-width="1.8" stroke-linejoin="round" stroke-linecap="round"/>
    <path d="M0,-5 L1.2,-1.8 L4.5,-1.5 L2.2,0.8 L3,4 L0,2.5 L-3,4 L-2.2,0.8 L-4.5,-1.5 L-1.2,-1.8 Z" fill="#FF1493" opacity="0.25"/>
  </g>
  <circle cx="189" cy="32" r="2" fill="#FF1493" opacity="0.35"/>
  <circle cx="189" cy="48" r="1.5" fill="#FFD700" opacity="0.4"/>

  <g transform="translate(216,40)">
    <circle cx="0" cy="0" r="12" fill="none" stroke="#FFD700" stroke-width="2"/>
    <circle cx="0" cy="0" r="7" fill="none" stroke="#FFD700" stroke-width="1" opacity="0.4"/>
  </g>
  <circle cx="241" cy="35" r="1.5" fill="#FFD700" opacity="0.4"/>
  <circle cx="241" cy="45" r="2" fill="#FF1493" opacity="0.35"/>

  <g transform="translate(268,40)">
    <path d="M0,-14 L3.2,-5.5 L13,-4.5 L6.5,3 L8.8,13 L0,7.5 L-8.8,13 L-6.5,3 L-13,-4.5 L-3.2,-5.5 Z" fill="none" stroke="#FF1493" stroke-width="2" stroke-linejoin="round" stroke-linecap="round"/>
    <line x1="0" y1="-6" x2="0" y2="-2" stroke="#FF1493" stroke-width="1" opacity="0.5"/>
    <line x1="5.5" y1="2" x2="2.2" y2="0.8" stroke="#FF1493" stroke-width="1" opacity="0.5"/>
    <line x1="-5.5" y1="2" x2="-2.2" y2="0.8" stroke="#FF1493" stroke-width="1" opacity="0.5"/>
    <circle cx="0" cy="0" r="2.2" fill="#FF1493" opacity="0.6"/>
  </g>
  <circle cx="295" cy="30" r="2.5" fill="#FFD700" opacity="0.5"/>
  <circle cx="295" cy="50" r="1.5" fill="#FF1493" opacity="0.4"/>

  <g transform="translate(340,40)">
    <ellipse cx="0" cy="-10" rx="5" ry="8" fill="none" stroke="#FFD700" stroke-width="1.8"/>
    <ellipse cx="0" cy="10" rx="5" ry="8" fill="none" stroke="#FFD700" stroke-width="1.8"/>
    <ellipse cx="-10" cy="0" rx="8" ry="5" fill="none" stroke="#FFD700" stroke-width="1.8"/>
    <ellipse cx="10" cy="0" rx="8" ry="5" fill="none" stroke="#FFD700" stroke-width="1.8"/>
    <circle cx="0" cy="0" r="4" fill="none" stroke="#FFD700" stroke-width="1.5"/>
    <circle cx="0" cy="0" r="1.8" fill="#FFD700" opacity="0.8"/>
  </g>
  <circle cx="370" cy="28" r="2" fill="#FF1493" opacity="0.45"/>
  <circle cx="370" cy="52" r="1.5" fill="#FFD700" opacity="0.4"/>

  <g transform="translate(412,40)">
    <path d="M0,-13 L3,-5 L12,-4 L6,3 L8,12 L0,7 L-8,12 L-6,3 L-12,-4 L-3,-5 Z" fill="none" stroke="#FF1493" stroke-width="2" stroke-linejoin="round" stroke-linecap="round"/>
    <circle cx="0" cy="0" r="2" fill="#FF1493" opacity="0.5"/>
  </g>
  <circle cx="436" cy="33" r="2" fill="#FFD700" opacity="0.4"/>
  <circle cx="436" cy="47" r="1.5" fill="#FF1493" opacity="0.35"/>

  <g transform="translate(464,40)">
    <circle cx="0" cy="0" r="12" fill="none" stroke="#FFD700" stroke-width="2"/>
    <circle cx="0" cy="0" r="4" fill="none" stroke="#FFD700" stroke-width="1.2" opacity="0.5"/>
    <circle cx="0" cy="0" r="1.8" fill="#FFD700" opacity="0.6"/>
  </g>
  <circle cx="489" cy="34" r="1.5" fill="#FF1493" opacity="0.4"/>
  <circle cx="489" cy="46" r="2" fill="#FFD700" opacity="0.35"/>

  <g transform="translate(516,40)">
    <path d="M0,-11 L2.8,-4 L10,-3.4 L5,2.5 L6.8,10 L0,6 L-6.8,10 L-5,2.5 L-10,-3.4 L-2.8,-4 Z" fill="none" stroke="#FF1493" stroke-width="1.8" stroke-linejoin="round" stroke-linecap="round"/>
    <path d="M0,-5 L1.2,-1.8 L4.5,-1.5 L2.2,0.8 L3,4 L0,2.5 L-3,4 L-2.2,0.8 L-4.5,-1.5 L-1.2,-1.8 Z" fill="#FF1493" opacity="0.25"/>
  </g>
  <circle cx="541" cy="32" r="2" fill="#FFD700" opacity="0.4"/>
  <circle cx="541" cy="48" r="1.5" fill="#FF1493" opacity="0.35"/>

  <g transform="translate(568,40)">
    <circle cx="0" cy="0" r="12" fill="none" stroke="#FFD700" stroke-width="2"/>
    <circle cx="0" cy="0" r="7" fill="none" stroke="#FFD700" stroke-width="1" opacity="0.4"/>
  </g>
  <circle cx="593" cy="35" r="1.5" fill="#FF1493" opacity="0.4"/>
  <circle cx="593" cy="45" r="2" fill="#FFD700" opacity="0.35"/>

  <g transform="translate(620,40)">
    <path d="M0,-14 L3.2,-5.5 L13,-4.5 L6.5,3 L8.8,13 L0,7.5 L-8.8,13 L-6.5,3 L-13,-4.5 L-3.2,-5.5 Z" fill="none" stroke="#FF1493" stroke-width="2" stroke-linejoin="round" stroke-linecap="round"/>
    <line x1="0" y1="-6" x2="0" y2="-2" stroke="#FF1493" stroke-width="1" opacity="0.5"/>
    <line x1="5.5" y1="2" x2="2.2" y2="0.8" stroke="#FF1493" stroke-width="1" opacity="0.5"/>
    <line x1="-5.5" y1="2" x2="-2.2" y2="0.8" stroke="#FF1493" stroke-width="1" opacity="0.5"/>
    <circle cx="0" cy="0" r="2.2" fill="#FF1493" opacity="0.6"/>
  </g>

</svg>
