<svg xmlns="http://www.w3.org/2000/svg" viewBox="0 0 860 100">

  <g transform="translate(60,50)">
    <path d="M0,-18 L4.2,-7 L16,-5.5 L8,4 L10.5,16 L0,10 L-10.5,16 L-8,4 L-16,-5.5 L-4.2,-7 Z" fill="none" stroke="#FF1493" stroke-width="2.2" stroke-linejoin="round" stroke-linecap="round"/>
    <circle cx="0" cy="0" r="3" fill="#FF1493" opacity="0.55"/>
  </g>
  <circle cx="91" cy="40" r="2.5" fill="#FF1493" opacity="0.45"/>
  <circle cx="91" cy="60" r="2" fill="#FFD700" opacity="0.4"/>

  <g transform="translate(125,50)">
    <circle cx="0" cy="0" r="16" fill="none" stroke="#FFD700" stroke-width="2.2"/>
    <circle cx="0" cy="0" r="9" fill="none" stroke="#FFD700" stroke-width="1.2" opacity="0.45"/>
    <circle cx="0" cy="0" r="2.5" fill="#FFD700" opacity="0.65"/>
  </g>
  <circle cx="156" cy="38" r="2" fill="#FFD700" opacity="0.4"/>
  <circle cx="156" cy="62" r="2.5" fill="#FF1493" opacity="0.38"/>

  <g transform="translate(190,50)">
    <path d="M0,-16 L3.8,-6.5 L14,-5 L7.5,3.5 L9.5,15 L0,9 L-9.5,15 L-7.5,3.5 L-14,-5 L-3.8,-6.5 Z" fill="none" stroke="#FF1493" stroke-width="2" stroke-linejoin="round" stroke-linecap="round"/>
    <path d="M0,-7.5 L1.8,-3 L6.5,-2.3 L3.5,1.5 L4.5,7 L0,4 L-4.5,7 L-3.5,1.5 L-6.5,-2.3 L-1.8,-3 Z" fill="#FF1493" opacity="0.22"/>
  </g>
  <circle cx="221" cy="37" r="2.5" fill="#FF1493" opacity="0.38"/>
  <circle cx="221" cy="63" r="2" fill="#FFD700" opacity="0.42"/>

  <g transform="translate(255,50)">
    <circle cx="0" cy="0" r="16" fill="none" stroke="#FFD700" stroke-width="2.2"/>
    <circle cx="0" cy="0" r="4" fill="none" stroke="#FFD700" stroke-width="1.5" opacity="0.5"/>
    <circle cx="0" cy="0" r="2" fill="#FFD700" opacity="0.7"/>
  </g>
  <circle cx="286" cy="39" r="2" fill="#FFD700" opacity="0.4"/>
  <circle cx="286" cy="61" r="2.5" fill="#FF1493" opacity="0.38"/>

  <g transform="translate(320,50)">
    <path d="M0,-20 L4.5,-8 L18,-6.5 L9.5,4.5 L12,18 L0,11.5 L-12,18 L-9.5,4.5 L-18,-6.5 L-4.5,-8 Z" fill="none" stroke="#FF1493" stroke-width="2.4" stroke-linejoin="round" stroke-linecap="round"/>
    <line x1="0" y1="-9" x2="0" y2="-3" stroke="#FF1493" stroke-width="1.3" opacity="0.55" stroke-linecap="round"/>
    <line x1="7.5" y1="3" x2="3" y2="1.2" stroke="#FF1493" stroke-width="1.3" opacity="0.55" stroke-linecap="round"/>
    <line x1="-7.5" y1="3" x2="-3" y2="1.2" stroke="#FF1493" stroke-width="1.3" opacity="0.55" stroke-linecap="round"/>
    <circle cx="0" cy="0" r="3.2" fill="#FF1493" opacity="0.6"/>
  </g>
  <circle cx="355" cy="34" r="3" fill="#FFD700" opacity="0.5"/>
  <circle cx="355" cy="66" r="2" fill="#FF1493" opacity="0.42"/>

  <g transform="translate(430,50)">
    <ellipse cx="0" cy="-14" rx="7" ry="11" fill="none" stroke="#FFD700" stroke-width="2"/>
    <ellipse cx="0" cy="14" rx="7" ry="11" fill="none" stroke="#FFD700" stroke-width="2"/>
    <ellipse cx="-14" cy="0" rx="11" ry="7" fill="none" stroke="#FFD700" stroke-width="2"/>
    <ellipse cx="14" cy="0" rx="11" ry="7" fill="none" stroke="#FFD700" stroke-width="2"/>
    <circle cx="0" cy="0" r="6" fill="none" stroke="#FFD700" stroke-width="1.8"/>
    <circle cx="0" cy="0" r="2.5" fill="#FFD700" opacity="0.85"/>
  </g>
  <circle cx="465" cy="33" r="2.5" fill="#FF1493" opacity="0.48"/>
  <circle cx="465" cy="67" r="2" fill="#FFD700" opacity="0.4"/>

  <g transform="translate(540,50)">
    <path d="M0,-20 L4.5,-8 L18,-6.5 L9.5,4.5 L12,18 L0,11.5 L-12,18 L-9.5,4.5 L-18,-6.5 L-4.5,-8 Z" fill="none" stroke="#FF1493" stroke-width="2.4" stroke-linejoin="round" stroke-linecap="round"/>
    <line x1="0" y1="-9" x2="0" y2="-3" stroke="#FF1493" stroke-width="1.3" opacity="0.55" stroke-linecap="round"/>
    <line x1="7.5" y1="3" x2="3" y2="1.2" stroke="#FF1493" stroke-width="1.3" opacity="0.55" stroke-linecap="round"/>
    <line x1="-7.5" y1="3" x2="-3" y2="1.2" stroke="#FF1493" stroke-width="1.3" opacity="0.55" stroke-linecap="round"/>
    <circle cx="0" cy="0" r="3.2" fill="#FF1493" opacity="0.6"/>
  </g>
  <circle cx="575" cy="34" r="3" fill="#FFD700" opacity="0.5"/>
  <circle cx="575" cy="66" r="2" fill="#FF1493" opacity="0.42"/>

  <g transform="translate(605,50)">
    <circle cx="0" cy="0" r="16" fill="none" stroke="#FFD700" stroke-width="2.2"/>
    <circle cx="0" cy="0" r="9" fill="none" stroke="#FFD700" stroke-width="1.2" opacity="0.45"/>
    <circle cx="0" cy="0" r="2.5" fill="#FFD700" opacity="0.65"/>
  </g>
  <circle cx="636" cy="38" r="2" fill="#FF1493" opacity="0.4"/>
  <circle cx="636" cy="62" r="2.5" fill="#FFD700" opacity="0.38"/>

  <g transform="translate(670,50)">
    <path d="M0,-16 L3.8,-6.5 L14,-5 L7.5,3.5 L9.5,15 L0,9 L-9.5,15 L-7.5,3.5 L-14,-5 L-3.8,-6.5 Z" fill="none" stroke="#FF1493" stroke-width="2" stroke-linejoin="round" stroke-linecap="round"/>
    <path d="M0,-7.5 L1.8,-3 L6.5,-2.3 L3.5,1.5 L4.5,7 L0,4 L-4.5,7 L-3.5,1.5 L-6.5,-2.3 L-1.8,-3 Z" fill="#FF1493" opacity="0.22"/>
  </g>
  <circle cx="701" cy="37" r="2.5" fill="#FFD700" opacity="0.42"/>
  <circle cx="701" cy="63" r="2" fill="#FF1493" opacity="0.38"/>

  <g transform="translate(735,50)">
    <circle cx="0" cy="0" r="16" fill="none" stroke="#FFD700" stroke-width="2.2"/>
    <circle cx="0" cy="0" r="4" fill="none" stroke="#FFD700" stroke-width="1.5" opacity="0.5"/>
    <circle cx="0" cy="0" r="2" fill="#FFD700" opacity="0.7"/>
  </g>
  <circle cx="766" cy="39" r="2" fill="#FFD700" opacity="0.4"/>
  <circle cx="766" cy="61" r="2.5" fill="#FF1493" opacity="0.38"/>

  <g transform="translate(800,50)">
    <path d="M0,-18 L4.2,-7 L16,-5.5 L8,4 L10.5,16 L0,10 L-10.5,16 L-8,4 L-16,-5.5 L-4.2,-7 Z" fill="none" stroke="#FF1493" stroke-width="2.2" stroke-linejoin="round" stroke-linecap="round"/>
    <circle cx="0" cy="0" r="3" fill="#FF1493" opacity="0.55"/>
  </g>

</svg>
